<svg width="18" height="18" viewBox="0 0 18 18" fill="none" xmlns="http://www.w3.org/2000/svg">
<g clip-path="url(#clip0_8655_5588)">
<path d="M9.46502 15.6067C9.16155 15.6967 8.83849 15.6967 8.53502 15.6067C6.36002 14.8642 1.50002 11.7667 1.50002 6.51672C1.49844 5.9676 1.60506 5.42355 1.81379 4.91565C2.02251 4.40775 2.32926 3.94594 2.7165 3.55661C3.10374 3.16728 3.56389 2.85806 4.07066 2.6466C4.57743 2.43514 5.1209 2.3256 5.67002 2.32422C6.31786 2.3239 6.95672 2.47576 7.53513 2.76757C8.11353 3.05938 8.6153 3.48297 9.00002 4.00422C9.52326 3.29971 10.2559 2.7787 11.0931 2.5157C11.9303 2.2527 12.8293 2.26119 13.6614 2.53995C14.4935 2.8187 15.2162 3.35345 15.726 4.06772C16.2358 4.78199 16.5068 5.63918 16.5 6.51672C16.5 11.7667 11.64 14.8642 9.46502 15.6067Z" stroke="#434343" stroke-linecap="round" stroke-linejoin="round"/>
</g>
<defs>
<clipPath id="clip0_8655_5588">
<rect width="18" height="18" fill="white"/>
</clipPath>
</defs>
</svg>
