<svg width="20" height="20" viewBox="0 0 20 20" fill="none" xmlns="http://www.w3.org/2000/svg">
<path d="M19.9862 9.41045C19.6462 3.61045 14.3762 -0.85955 8.30616 0.14045C4.12616 0.83045 0.776155 4.22045 0.126155 8.40045C-0.253845 10.8204 0.246155 13.1104 1.33615 15.0005L0.446155 18.3104C0.246155 19.0604 0.936155 19.7404 1.67616 19.5305L4.93615 18.6304C6.41615 19.5005 8.14615 20.0005 9.99615 20.0005C15.6362 20.0005 20.3162 15.0304 19.9862 9.41045ZM14.8862 13.7205C14.645 14.2152 14.233 14.6059 13.7262 14.8204C13.4262 14.9504 13.0962 15.0105 12.7462 15.0105C12.2362 15.0105 11.6862 14.8904 11.1162 14.6404C10.5087 14.3737 9.93194 14.0418 9.39616 13.6504C8.81616 13.2304 8.27616 12.7605 7.75616 12.2505C7.23616 11.7304 6.77616 11.1804 6.35616 10.6104C5.94616 10.0405 5.61615 9.47045 5.37615 8.90045C5.13616 8.33045 5.01616 7.78045 5.01616 7.26045C5.01616 6.92045 5.07616 6.59045 5.19616 6.29045C5.31615 5.98045 5.50616 5.70045 5.77615 5.45045C6.09616 5.13045 6.44616 4.98045 6.81616 4.98045C6.95616 4.98045 7.09616 5.01045 7.22616 5.07045C7.35616 5.13045 7.47616 5.22045 7.56616 5.35045L8.72616 6.99045C8.81616 7.12045 8.88616 7.23045 8.92616 7.34045C8.97616 7.45045 8.99615 7.55045 8.99615 7.65045C8.99615 7.77045 8.95615 7.89045 8.88616 8.01045C8.81616 8.13045 8.72616 8.25045 8.60616 8.37045L8.22616 8.77045C8.16615 8.83045 8.14616 8.89045 8.14616 8.97045C8.14616 9.01045 8.15615 9.05045 8.16615 9.09045C8.18616 9.13045 8.19615 9.16045 8.20615 9.19045C8.29615 9.36045 8.45615 9.57045 8.67616 9.83045C9.14434 10.3806 9.65599 10.8923 10.2062 11.3604C10.4662 11.5805 10.6862 11.7304 10.8562 11.8204C10.8862 11.8305 10.9162 11.8504 10.9462 11.8604C10.9862 11.8805 11.0262 11.8805 11.0762 11.8805C11.1662 11.8805 11.2262 11.8505 11.2862 11.7905L11.6662 11.4104C11.7962 11.2804 11.9162 11.1905 12.0262 11.1305C12.1462 11.0605 12.2562 11.0205 12.3862 11.0205C12.4862 11.0205 12.5862 11.0405 12.6962 11.0905C12.8062 11.1405 12.9262 11.2004 13.0462 11.2905L14.7062 12.4705C14.8362 12.5605 14.9262 12.6705 14.9862 12.7905C15.0362 12.9205 15.0662 13.0405 15.0662 13.1805C15.0062 13.3505 14.9662 13.5405 14.8862 13.7205Z" fill="white"/>
</svg>
